# xmcd
#
# Track frame offsets:
#	182
#	15042
#	29752
#	48227
#	63902
#	78977
#	90130
#	103475
#	117230
#	131490
#
# Disc length: 1998 seconds
# Revision: 2
# Processed by: cddbd v1.5.2PL0 Copyright (c) Steve Scherf et al.
# Submitted via: dBpowerAMP V12.0
#
DISCID=7207cc0a
DTITLE=The Bellamy Brothers -  Best of the Bellamy Brothers
DYEAR=1985
DGENRE=Country
TTITLE0=Let Your Love Flow
TTITLE1=If I Said You Had a Beautiful Body (Would You Hold It Against Me)
TTITLE2=Old Hippie
TTITLE3=Kids of the Baby Boom
TTITLE4=Dancin' Cowboys
TTITLE5=Bird Dog
TTITLE6=Slippin' Away
TTITLE7=Lovin' On
TTITLE8=Ole Faithful
TTITLE9=Satin Sheets
EXTD=
EXTT0=
EXTT1=
EXTT2=
EXTT3=
EXTT4=
EXTT5=
EXTT6=
EXTT7=
EXTT8=
EXTT9=
PLAYORDER=
